<?xml version="1.0" encoding="UTF-8"?>
<svg version="1.1" xmlns="http://www.w3.org/2000/svg" width="400" height="400">
<path d="M0 0 C132 0 264 0 400 0 C400 132 400 264 400 400 C268 400 136 400 0 400 C0 268 0 136 0 0 Z " fill="#050505" transform="translate(0,0)"/>
<path d="M0 0 C132 0 264 0 400 0 C400.20625 34.010625 400.4125 68.02125 400.625 103.0625 C400.71604004 113.80562744 400.80708008 124.54875488 400.90087891 135.61743164 C400.94604492 148.72546387 400.94604492 148.72546387 400.95443726 154.85984802 C400.96376333 159.14923203 401.00126902 163.4373814 401.05575562 167.72642517 C401.1243361 173.19734987 401.14491643 178.66647875 401.13072276 184.13779342 C401.1336906 186.14570472 401.15353411 188.15367857 401.19215131 190.16122067 C401.46760297 205.1782036 401.46760297 205.1782036 397.76774216 209.77099419 C394.69181646 211.99975493 391.89334068 214 388 214 C387.67 214.99 387.34 215.98 387 217 C375.3412171 224.03926514 360.66985897 226.26057995 347.375 223.125 C344 222 344 222 341.5 220.9375 C338.6223862 219.85839483 335.97775666 219.60184965 332.9375 219.28515625 C330.43504542 218.91685144 328.28235775 218.06985519 326 217 C326 216.34 326 215.68 326 215 C325.39414062 214.97421875 324.78828125 214.9484375 324.1640625 214.921875 C317.48395253 214.46968294 312.07185483 212.77755061 306 210 C306 209.34 306 208.68 306 208 C304.80375 207.7525 303.6075 207.505 302.375 207.25 C298.25178143 206.34379812 294.23342084 205.20344815 290.1875 204 C284.99570238 202.50162177 279.91290988 201.30346197 274.56616211 200.5324707 C271.9986274 200.14910703 269.4471423 199.73692916 266.89013672 199.29394531 C253.19591903 196.99055991 239.61369585 196.26994753 225.75 195.8125 C223.52860782 195.73084549 221.30725297 195.64816858 219.0859375 195.56445312 C213.72432965 195.36456347 208.36240631 195.17710815 203 195 C204.45298995 191.90543723 205.35993396 190.47269459 208.375 188.8125 C226.68882437 177.90354325 243.5984492 162.4493634 249.1484375 141.23046875 C250 138 250 138 250.7512207 136.22924805 C253.70737227 128.97961738 253.48800369 121.5181299 253.44604492 113.8190918 C253.43760359 111.46637324 253.46624667 109.1161475 253.49804688 106.76367188 C253.5698795 91.29723544 250.74004813 75.11007219 242 62 C242 60.68 242 59.36 242 58 C241.01 57.67 240.02 57.34 239 57 C237.203125 54.7421875 237.203125 54.7421875 235.25 51.875 C224.01590719 36.06556757 206.60401966 24.84483765 187.421875 21.34765625 C185.15713681 21.00595016 182.88893867 20.68599093 180.6171875 20.39453125 C178 20 178 20 176 19 C173.33119957 18.86415219 170.68993775 18.78721044 168.01953125 18.76171875 C167.21448654 18.753647 166.40944183 18.74557526 165.58000183 18.73725891 C163.86593787 18.7234024 162.15184612 18.71268728 160.43774414 18.70483398 C158.710772 18.69343112 156.98383171 18.6731703 155.25708008 18.64331055 C138.41770684 18.35227571 125.11955171 21.36900149 110 29 C108.94039063 29.51691406 107.88078125 30.03382812 106.7890625 30.56640625 C102.69335339 32.67162368 99.64444011 35.33984184 96.4375 38.625 C94 41 94 41 91.8125 42.0625 C89.44642327 43.28633279 88.98476503 44.575963 88 47 C87.505 47.99 87.505 47.99 87 49 C86.34 49 85.68 49 85 49 C84.62875 49.9590625 84.62875 49.9590625 84.25 50.9375 C82.31305147 55.68302389 80.29288359 60.41423281 78 65 C77.34 65 76.68 65 76 65 C75.74605469 66.22976562 75.49210937 67.45953125 75.23046875 68.7265625 C74.88324206 70.3594664 74.53556177 71.99227389 74.1875 73.625 C74.02185547 74.43324219 73.85621094 75.24148437 73.68554688 76.07421875 C72.68149474 80.73453622 71.6301565 84.94623938 69 89 C67.09765625 89.84765625 67.09765625 89.84765625 65.0625 90.0625 C60.75466812 90.82362877 59.627546 92.49660534 57 96 C55.0040278 96.67863055 53.00431449 97.34641919 51 98 C49.86649466 100.01669827 49.86649466 100.01669827 49 102 C40.63194259 105.07156931 30.41567001 103.1762355 22.453125 99.9765625 C16.69219848 97.73266571 11.23140303 95.69493257 5 97 C3.35 97.99 1.7 98.98 0 100 C0 67 0 34 0 0 Z " fill="#F9F9F9" transform="translate(0,0)"/>
<path d="M0 0 C0.99 0.495 0.99 0.495 2 1 C2.46340612 2.90145994 2.84409585 4.82324918 3.1875 6.75 C6.27301606 20.94649056 15.81014472 36.14255486 28.06640625 44.390625 C29.6800627 45.31644001 31.3360239 46.16801195 33 47 C33 47.66 33 48.32 33 49 C35.64 49.66 38.28 50.32 41 51 C41 51.66 41 52.32 41 53 C50.11915669 55.41681792 59.26103096 55.43775963 68.625 55.625 C70.21746732 55.66326332 71.80991579 55.70231961 73.40234375 55.7421875 C77.26807268 55.83726535 81.13389794 55.92162015 85 56 C85.29261719 56.62390625 85.58523437 57.2478125 85.88671875 57.890625 C86.91001827 60.09524466 86.91001827 60.09524466 88.8125 61.75 C92.80287963 65.85439047 95.95958047 69.696087 96.0625 75.5625 C94.83719615 79.52671833 93.21435977 82.49988294 91 86 C90.34 86 89.68 86 89 86 C88.814375 86.680625 88.62875 87.36125 88.4375 88.0625 C86.76473603 91.48075681 84.7084599 93.3885519 81.98828125 95.99609375 C69.95835602 108.10256368 69.95835602 108.10256368 63 123 C62.34 123 61.68 123 61 123 C60.62875 124.0209375 60.62875 124.0209375 60.25 125.0625 C58.75802092 128.56865083 56.93164489 131.71620368 55 135 C54.34 135 53.68 135 53 135 C52.67 137.97 52.34 140.94 52 144 C51.34 144 50.68 144 50 144 C49.81824219 144.85271484 49.81824219 144.85271484 49.6328125 145.72265625 C48.85701096 149.29731106 48.05782295 152.80846146 47 156.3125 C42.92580932 171.33607813 43.64167837 185.84777791 45.5625 201.1015625 C45.90198385 204.12660606 46.09593972 206.96590637 46 210 C46.66 210 47.32 210 48 210 C53.96045745 222.65391614 53.96045745 222.65391614 55.5625 227.5625 C57.17954685 231.42935117 58.67772679 232.56906838 62 235 C62.556875 235.886875 63.11375 236.77375 63.6875 237.6875 C72.23729457 251.0844222 89.85284118 259.43519544 104.4375 264.1875 C106.01337891 264.70376953 106.01337891 264.70376953 107.62109375 265.23046875 C108.40613281 265.48441406 109.19117187 265.73835938 110 266 C110 266.66 110 267.32 110 268 C110.60328125 268.06058594 111.2065625 268.12117188 111.828125 268.18359375 C113.02695313 268.30927734 113.02695313 268.30927734 114.25 268.4375 C115.03890625 268.51871094 115.8278125 268.59992188 116.640625 268.68359375 C119 269 119 269 120.84754944 269.50027466 C145.14909586 275.14226189 174.90974061 271.15356399 199.67114258 271.13037109 C205.87165052 271.12462047 212.07211566 271.12800088 218.27262211 271.13394356 C223.10009583 271.13756629 227.92755946 271.13640364 232.75503349 271.13381577 C235.0421798 271.13315404 237.32932705 271.13394819 239.61647224 271.13629532 C279.07518756 271.16798187 313.12729605 260.71629787 342.04077148 232.33886719 C342.83169189 231.54641602 343.6226123 230.75396484 344.4375 229.9375 C345.26644775 229.10766602 346.09539551 228.27783203 346.94946289 227.42285156 C354.94783059 219.26986916 361.40633093 210.69641849 367.01538086 200.74121094 C367.95636796 199.07715936 368.92483364 197.42873625 369.89453125 195.78125 C376.74058054 184.06906791 382.7059077 172.53486178 386.078125 159.31640625 C386.76344708 156.85098912 387.51211239 154.62890602 388.44921875 152.265625 C390.334726 147.35567015 391.43889694 142.31637582 392.5625 137.1875 C392.77068359 136.26646484 392.97886719 135.34542969 393.19335938 134.39648438 C395.54400852 123.86646045 397.22233483 113.77497939 397.65625 102.9921875 C397.7696875 102.00476563 397.883125 101.01734375 398 100 C398.66 99.67 399.32 99.34 400 99 C400 161.7 400 224.4 400 289 C268 289 136 289 0 289 C0 193.63 0 98.26 0 0 Z " fill="#F7F7F7" transform="translate(0,111)"/>
<path d="M0 0 C1.27334702 0.0036557 1.27334702 0.0036557 2.57241821 0.00738525 C14.36136636 0.04691997 26.11000519 0.36874669 37.875 1.125 C39.74248901 1.24246582 39.74248901 1.24246582 41.64770508 1.36230469 C46.58525038 1.72626693 50.27171744 2.00858087 54.6875 4.25 C57.07924114 4.66995709 57.07924114 4.66995709 59.65234375 4.8125 C61.09154175 4.92283569 61.09154175 4.92283569 62.55981445 5.03540039 C64.0770813 5.1416272 64.0770813 5.1416272 65.625 5.25 C88.21765803 7.01507902 88.21765803 7.01507902 92.6875 9.25 C94.64005164 9.59679648 96.59993766 9.90276374 98.5625 10.1875 C99.72265625 10.36152344 100.8828125 10.53554687 102.078125 10.71484375 C104.42170844 11.06232311 106.76544988 11.40873919 109.109375 11.75390625 C110.69492187 11.99947266 110.69492187 11.99947266 112.3125 12.25 C113.27414062 12.394375 114.23578125 12.53875 115.2265625 12.6875 C117.6875 13.25 117.6875 13.25 120.6875 15.25 C120.6875 15.91 120.6875 16.57 120.6875 17.25 C117.57607312 18.84365767 114.47643764 20.33826244 111.25 21.6875 C108.63134083 22.83603472 106.31940916 23.99722572 103.875 25.4375 C100.6875 27.25 100.6875 27.25 98.6875 27.25 C98.6875 27.91 98.6875 28.57 98.6875 29.25 C88.31392369 34.62129841 88.31392369 34.62129841 82.6875 36.25 C82.6875 36.91 82.6875 37.57 82.6875 38.25 C81.0375 38.91 79.3875 39.57 77.6875 40.25 C78.32796052 43.27777366 78.32796052 43.27777366 80.28222656 44.16967773 C80.95737305 44.42177002 81.63251953 44.6738623 82.328125 44.93359375 C83.06933594 45.22169922 83.81054688 45.50980469 84.57421875 45.80664062 C85.35410156 46.09732422 86.13398438 46.38800781 86.9375 46.6875 C96.67921113 50.34269516 96.67921113 50.34269516 100.6875 54.25 C101.0175 55.24 101.3475 56.23 101.6875 57.25 C100.08839132 58.25806851 98.48301738 59.25620385 96.875 60.25 C95.98167969 60.806875 95.08835937 61.36375 94.16796875 61.9375 C91.6875 63.25 91.6875 63.25 88.6875 63.25 C88.6875 63.91 88.6875 64.57 88.6875 65.25 C85.56232865 67.54179232 82.22111462 68.8329812 78.625 70.1875 C74.77106393 71.66846356 72.46523914 73.13893216 69.6875 76.25 C68.6975 76.25 67.7075 76.25 66.6875 76.25 C66.6875 77.24 66.6875 78.23 66.6875 79.25 C67.491875 79.62125 67.491875 79.62125 68.3125 80 C76.34707447 84.2287234 76.34707447 84.2287234 77.6875 88.25 C78.38875 88.3325 79.09 88.415 79.8125 88.5 C83.34022947 89.42027725 85.74861614 91.13126977 88.6875 93.25 C88.3575 94.57 88.0275 95.89 87.6875 97.25 C84.37723629 98.071793 81.06394329 98.88068483 77.75 99.6875 C76.82380859 99.91759766 75.89761719 100.14769531 74.94335938 100.38476562 C69.17892383 101.78036581 63.58430203 102.64685143 57.6875 103.25 C56.6975 103.745 56.6975 103.745 55.6875 104.25 C52.3468365 104.56648391 49.00532389 104.76128525 45.65625 104.96875 C42.7610199 105.06288062 42.7610199 105.06288062 40.6875 106.25 C38.0846719 106.34881797 35.50920686 106.38984733 32.90625 106.3828125 C31.7523175 106.38424759 31.7523175 106.38424759 30.57507324 106.38571167 C28.94767169 106.38639254 27.32026743 106.38454473 25.69287109 106.38037109 C23.19752927 106.3750215 20.70236745 106.38031919 18.20703125 106.38671875 C16.62760377 106.38605795 15.0481764 106.38477675 13.46875 106.3828125 C12.34527161 106.38584885 12.34527161 106.38584885 11.19909668 106.38894653 C5.91742243 106.36496122 5.91742243 106.36496122 3.6875 105.25 C1.90069627 104.92988858 0.10777199 104.643584 -1.6875 104.375 C-19.0514373 101.48788453 -36.12906402 95.59376322 -48.3125 82.25 C-48.3125 81.59 -48.3125 80.93 -48.3125 80.25 C-49.6325 79.59 -50.9525 78.93 -52.3125 78.25 C-52.3125 77.59 -52.3125 76.93 -52.3125 76.25 C-52.90804687 76.03859375 -53.50359375 75.8271875 -54.1171875 75.609375 C-57.12603798 73.74624339 -57.9288523 71.67526898 -59.4375 68.5 C-59.93507813 67.47390625 -60.43265625 66.4478125 -60.9453125 65.390625 C-65.45478476 55.03172301 -66.74536759 41.32098023 -62.6875 30.5 C-60.43904203 26.01097339 -57.58883324 22.04197891 -54.3125 18.25 C-53.81105469 17.65445312 -53.30960938 17.05890625 -52.79296875 16.4453125 C-38.7005544 1.01566176 -19.44264412 -0.12081578 0 0 Z " fill="#F6F6F6" transform="translate(181.3125,240.75)"/>
<path d="M0 0 C0.5775 0.226875 1.155 0.45375 1.75 0.6875 C1.81316406 1.53570312 1.87632813 2.38390625 1.94140625 3.2578125 C2.98054578 13.21167541 5.92466025 20.00403783 10.75 28.6875 C14.06241084 35.11203638 14.06241084 35.11203638 14.75 38.6875 C15.36488281 38.77 15.97976562 38.8525 16.61328125 38.9375 C18.75 39.6875 18.75 39.6875 19.98046875 41.5 C20.29628906 42.221875 20.61210938 42.94375 20.9375 43.6875 C22.03954461 46.39447055 22.03954461 46.39447055 23.75 48.6875 C24.125 51.0625 24.125 51.0625 23.75 53.6875 C17.47840633 58.85234185 9.03605385 57.814254 1.375 57.75 C0.35277344 57.74548828 -0.66945312 57.74097656 -1.72265625 57.73632812 C-4.23183194 57.724603 -6.7408849 57.70819176 -9.25 57.6875 C-9.25 57.0275 -9.25 56.3675 -9.25 55.6875 C-10.00023437 55.66171875 -10.75046875 55.6359375 -11.5234375 55.609375 C-23.25243894 54.95940515 -30.89921935 51.90855978 -39.25 43.6875 C-40.41595703 42.62982422 -40.41595703 42.62982422 -41.60546875 41.55078125 C-46.67637076 36.81077008 -50.22078975 32.39950314 -52.25 25.6875 C-52.25 25.0275 -52.25 24.3675 -52.25 23.6875 C-52.91 23.6875 -53.57 23.6875 -54.25 23.6875 C-57.8182233 18.33516505 -58.57665309 12.05723531 -58.25 5.6875 C-43.21875 7.71875 -43.21875 7.71875 -40.25 10.6875 C-29.14254241 12.7701483 -20.03701389 12.00338312 -10.4375 5.6875 C-8.27641633 4.17592235 -6.22892569 2.6691674 -4.23828125 0.9375 C-2.25 -0.3125 -2.25 -0.3125 0 0 Z " fill="#F1F1F1" transform="translate(68.25,100.3125)"/>
<path d="M0 0 C4.19961547 2.09980773 6.10961077 3.78297787 8 8 C9.485 8.495 9.485 8.495 11 9 C12.29758261 11.59516521 12.13269102 13.54183027 12.125 16.4375 C12.12886719 17.88962891 12.12886719 17.88962891 12.1328125 19.37109375 C12 22 12 22 11 25 C10.34 25 9.68 25 9 25 C8.7525 25.598125 8.505 26.19625 8.25 26.8125 C5.94305506 30.84965365 2.373846 32.70772732 -2 34 C-7.86345783 34.4728595 -11.75806968 33.96713037 -17 31 C-20.03528417 28.20000918 -22.62705654 25.22669258 -23 21 C-23.12375 19.7625 -23.2475 18.525 -23.375 17.25 C-23.30946663 12.2320159 -21.10484247 8.81548762 -18 5 C-12.48432112 -0.12170182 -7.31076115 -0.8299931 0 0 Z " fill="#EFEFEF" transform="translate(131,77)"/>
<path d="M0 0 C3.72953469 0.47633009 7.45855688 0.95656252 11.1875 1.4375 C12.77014648 1.63956055 12.77014648 1.63956055 14.38476562 1.84570312 C15.40634766 1.97783203 16.42792969 2.10996094 17.48046875 2.24609375 C18.41785889 2.36654053 19.35524902 2.4869873 20.32104492 2.61108398 C22.07896193 2.86628874 23.83027337 3.17342401 25.5690918 3.53662109 C29.57330593 4.29990305 33.55956108 4.19046072 37.625 4.1875 C38.54418213 4.18814453 39.46336426 4.18878906 40.41040039 4.18945312 C48.34726116 4.12964974 56.12584478 3.4119531 63.99609375 2.4375 C67.34729606 2.03196571 70.62061491 1.91431036 74 2 C71.24455169 4.75544831 69.34106623 4.36279855 65.5 4.5625 C61.09066238 4.66407271 61.09066238 4.66407271 57 6 C54.3971719 6.09881797 51.82170686 6.13984733 49.21875 6.1328125 C48.0648175 6.13424759 48.0648175 6.13424759 46.88757324 6.13571167 C45.26017169 6.13639254 43.63276743 6.13454473 42.00537109 6.13037109 C39.51002927 6.1250215 37.01486745 6.13031919 34.51953125 6.13671875 C32.94010377 6.13605795 31.3606764 6.13477675 29.78125 6.1328125 C28.65777161 6.13584885 28.65777161 6.13584885 27.51159668 6.13894653 C22.22992243 6.11496122 22.22992243 6.11496122 20 5 C18.13021342 4.65768523 16.25395153 4.35028878 14.375 4.0625 C9.49185143 3.28001957 4.77332457 2.28512585 0 1 C0 0.67 0 0.34 0 0 Z " fill="#8E8E8E" transform="translate(165,341)"/>
<path d="M0 0 C0.66 0.33 1.32 0.66 2 1 C1.34 1.66 0.68 2.32 0 3 C1.11689209 3.029729 1.11689209 3.029729 2.25634766 3.06005859 C29.57404344 3.82463304 29.57404344 3.82463304 41 6 C41 6.33 41 6.66 41 7 C25.65607004 7.22059963 10.33054444 6.56291843 -5 6 C-3.63016497 2.83884224 -3.0109362 2.0072908 0 0 Z " fill="#888888" transform="translate(208,189)"/>
<path d="M0 0 C0.33 0 0.66 0 1 0 C0.56072137 3.22137665 0.11412975 6.4180254 -0.51171875 9.609375 C-2.94751674 22.39299567 -2.11195321 35.11325654 -1 48 C-4.60986787 41.26157997 -4.18335089 34.81824671 -4.1875 27.3125 C-4.19974609 26.16587891 -4.21199219 25.01925781 -4.22460938 23.83789062 C-4.2391348 15.37925131 -3.510848 7.77402057 0 0 Z " fill="#909090" transform="translate(46,264)"/>
<path d="M0 0 C0 0.33 0 0.66 0 1 C-1.794375 1.0928125 -1.794375 1.0928125 -3.625 1.1875 C-8.40730383 1.74912287 -10.60507231 3.68994551 -14 7 C-13.65557106 4.50289018 -13.15296001 3.17845335 -11.5 1.25 C-7.74442761 -0.62778619 -4.12353394 -0.23789619 0 0 Z " fill="#4C4C4C" transform="translate(14,96)"/>
</svg>
